# xmcd
#
# Track frame offsets:
#	150
#	10327
#	22507
#	42372
#	51402
#	71802
#	84787
#	111282
#	133682
#	150112
#	160757
#	176435
#	192142
#
# Disc length: 2775 seconds
# Revision: 2
# Processed by: cddbd v1.5.2PL0 Copyright (c) Steve Scherf et al.
# Submitted via: dBpowerAMP V12.0
#
DISCID=950ad50d
DTITLE=Dave Stamey - Campfire Waltz
DYEAR=2000
DGENRE=Country
TTITLE0=Don't Fence Me in
TTITLE1=Ride an Ol' Paint
TTITLE2=Sonora's Death Row
TTITLE3=Ridin' the Sage
TTITLE4=Night Rider's Lament
TTITLE5=Carry Me Back
TTITLE6=Mr. Shorty
TTITLE7=Coyotes
TTITLE8=Old Red
TTITLE9=Chime Bells
TTITLE10=Ready to Stand
TTITLE11=Strawberry Roan
TTITLE12=The Old Double Diamond
EXTD=
EXTT0=
EXTT1=
EXTT2=
EXTT3=
EXTT4=
EXTT5=
EXTT6=
EXTT7=
EXTT8=
EXTT9=
EXTT10=
EXTT11=
EXTT12=
PLAYORDER=
